<svg width="105" height="151" viewBox="0 0 105 151" fill="none" xmlns="http://www.w3.org/2000/svg">
<path d="M7.87554 140.766L7 47.6988L51.3455 10.28C60.899 12.8096 66.8138 10.3236 73.5182 14.1179C80.2664 17.8685 91.0014 23.0582 94.244 29.4691C97.4867 35.8801 99.108 41.2878 99.108 49.1815C99.108 57.0752 97.4867 64.2493 94.244 70.7039C91.0452 77.1584 86.0936 82.3045 79.3892 86.1424C72.6848 89.9366 61.8184 79.3609 51.3455 79.3609L34.9569 72.6447L27.2447 69.7663L53.0974 77.4418C60.3276 77.4418 66.1337 76.1989 70.5157 73.713C74.8977 71.2272 78.0746 67.8691 80.0465 63.6388C82.0622 59.3648 83.07 54.5457 83.07 49.1815C83.07 43.8173 82.0622 39.02 80.0465 34.7897C78.0746 30.5593 74.9415 25.1516 70.5157 22.753C66.0899 20.3107 45.627 18.3018 38.8788 18.3018L21.0214 24.8462L24.1764 80.3203V140.766H7.87554Z" fill="#0466D3"/>
<path fill-rule="evenodd" clip-rule="evenodd" d="M71.5026 27.8315C77.0549 31.4752 82.976 39.5056 83.7568 46.0989L97.3991 43.1814C97.1822 36.4579 95.1001 30.4502 91.1527 25.1581C87.2487 19.8661 81.9566 15.7018 75.2765 12.6654C68.5963 9.5856 59.6605 9 51.0717 9C42.5697 9 34.8918 9.54222 27.9948 12.6654C21.1411 15.7452 16.9552 20.148 12.8777 25.7437C8.84355 31.296 7 38.7569 7 46.2179C7 55.197 9.86293 61.5084 15.9358 67.0607C22.0087 72.613 30.2504 76.8857 40.6611 79.8788L57.0578 84.5635C61.7426 85.8649 66.1021 87.3831 70.1362 89.1182C74.1703 90.8533 77.4237 93.1089 79.8962 95.8851C82.3687 98.6612 83.605 102.262 83.605 106.686C83.605 111.544 82.1735 115.795 79.3106 119.439C76.4477 123.039 72.5654 125.859 67.6637 127.898C63.5932 129.555 53.7515 130.882 49.45 130.918C53.3518 131.517 57.678 133.834 61.8808 136.086C67.6943 139.2 73.2717 142.189 77.1634 140.325C84.3641 136.898 89.8297 132.279 93.5602 126.466C97.334 120.654 99.2209 114.147 99.2209 106.946C99.2209 100.7 97.9413 95.4296 95.382 91.1352C92.8227 86.8408 89.5694 83.3273 85.622 80.5945C81.718 77.8183 77.6188 75.6278 73.3245 74.0228C69.0734 72.4178 65.2128 71.1599 61.7426 70.249L48.2088 66.6053C45.7363 65.9546 43.0252 65.1087 40.0755 64.0677C37.1258 62.9833 34.3062 61.6169 31.6168 59.9685C28.9274 58.2768 26.7152 56.173 24.98 53.6571C23.2883 51.0978 22.4425 48.0397 22.4425 44.4828C22.4425 40.2318 23.657 36.4363 26.0862 33.0962C28.5587 29.7561 31.9855 27.1318 36.3667 25.2232C40.7912 23.3146 45.1724 22.3659 51.0717 22.3659C59.14 22.3659 65.9503 24.1878 71.5026 27.8315Z" fill="#0466D3"/>
<path fill-rule="evenodd" clip-rule="evenodd" d="M83.7568 46.0989C82.976 39.5056 77.0549 31.4752 71.5026 27.8315C65.9503 24.1878 59.14 22.3659 51.0717 22.3659C45.1724 22.3659 40.7912 23.3146 36.3667 25.2232C31.9855 27.1318 28.5587 29.7561 26.0862 33.0962C23.657 36.4363 22.4425 40.2318 22.4425 44.4828C22.4425 48.0397 23.2883 51.0978 24.98 53.6571C26.7152 56.173 28.9274 58.2768 31.6168 59.9685C34.3062 61.6169 37.1258 62.9833 40.0755 64.0677C43.0252 65.1087 45.7363 65.9546 48.2088 66.6053L61.7426 70.249C65.2128 71.1599 69.0734 72.4178 73.3245 74.0228C77.6188 75.6278 81.718 77.8183 85.622 80.5945C89.5694 83.3273 92.8227 86.8408 95.382 91.1352C97.9413 95.4296 99.2209 100.7 99.2209 106.946C99.2209 114.147 97.334 120.654 93.5602 126.466C89.8297 132.279 84.3641 136.898 77.1634 140.325C73.2717 142.189 67.6943 139.2 61.8808 136.086C57.678 133.834 53.3518 131.517 49.45 130.918C53.7515 130.882 63.5932 129.555 67.6637 127.898C72.5654 125.859 76.4477 123.039 79.3106 119.439C82.1735 115.795 83.605 111.544 83.605 106.686C83.605 102.262 82.3687 98.6612 79.8962 95.8851C77.4237 93.1089 74.1703 90.8533 70.1362 89.1182C66.1021 87.3831 61.7426 85.8649 57.0578 84.5635L40.6611 79.8788C30.2504 76.8857 22.0087 72.613 15.9358 67.0607C9.86293 61.5084 7 55.197 7 46.2179C7 38.7569 8.84355 31.296 12.8777 25.7437C16.9552 20.148 21.1411 15.7452 27.9948 12.6654C34.8918 9.54222 42.5697 9 51.0717 9C59.6605 9 68.5963 9.5856 75.2765 12.6654C81.9566 15.7018 87.2487 19.8661 91.1527 25.1581C95.1001 30.4502 97.1822 36.4579 97.3991 43.1814L83.7568 46.0989Z" fill="#0466D3"/>
<path d="M48.6516 60.5074C47.6542 59.9992 46.9867 59.2254 46.6489 58.1858C46.3111 57.1463 46.3963 56.1278 46.9045 55.1305C47.4127 54.1331 48.1866 53.4656 49.2261 53.1278C50.2657 52.79 51.2841 52.8752 52.2815 53.3834C53.2788 53.8916 53.9464 54.6655 54.2842 55.705C54.6219 56.7445 54.5367 57.763 54.0286 58.7604C53.5204 59.7577 52.7465 60.4253 51.707 60.763C50.6674 61.1008 49.649 61.0156 48.6516 60.5074ZM44.7032 48.3555L43.272 43.7677C45.3869 43.0805 47.597 42.8082 49.9023 42.9509C52.2076 43.0935 54.4526 43.7214 56.6373 44.8346C58.822 45.9478 60.6466 47.4009 62.111 49.1939C63.5753 50.987 64.6451 52.9528 65.3202 55.0915L60.8035 56.559C60.291 54.9818 59.4974 53.5455 58.4226 52.25C57.3477 50.9546 56.0267 49.9076 54.4594 49.109C52.8921 48.3104 51.2686 47.8571 49.5888 47.749C47.909 47.6409 46.2804 47.8431 44.7032 48.3555ZM41.7332 39.2148L40.2656 34.6981C43.5877 33.5791 47.0298 33.1344 50.5919 33.3641C54.154 33.5938 57.6211 34.5677 60.9932 36.2858C64.3652 38.0039 67.191 40.2364 69.4706 42.9832C71.7502 45.73 73.4136 48.7761 74.461 52.1215L69.9443 53.589C69.0475 50.8289 67.6571 48.3182 65.7731 46.0571C63.8892 43.7961 61.5699 41.9637 58.8153 40.5602C56.0606 39.1567 53.215 38.3573 50.2784 38.1622C47.3417 37.9671 44.4933 38.3179 41.7332 39.2148Z" fill="#0466D3"/>
<path d="M29.5852 103.655L46.9461 98.95C49.8048 98.1793 52.8523 98.528 55.4597 99.9241L63.0968 104.069L74.2187 106.142C75.0452 106.142 75.8381 106.467 76.4245 107.045C77.0109 107.624 77.3431 108.409 77.3486 109.23V115.448C77.3486 116.272 77.0189 117.063 76.4319 117.646C75.8449 118.229 75.0488 118.557 74.2187 118.557H72.132C71.9269 119.759 71.3 120.85 70.3623 121.637C69.4246 122.424 68.2368 122.855 67.0093 122.855C65.7818 122.855 64.5939 122.424 63.6562 121.637C62.7186 120.85 62.0916 119.759 61.8865 118.557H42.9189C42.7138 119.759 42.0868 120.85 41.1492 121.637C40.2115 122.424 39.0236 122.855 37.7961 122.855C36.5686 122.855 35.3808 122.424 34.4431 121.637C33.5054 120.85 32.8785 119.759 32.6734 118.557H30.5868C29.7566 118.557 28.9605 118.229 28.3735 117.646C27.7865 117.063 27.4568 116.272 27.4568 115.448V106.556C27.4659 105.914 27.6755 105.289 28.0567 104.77C28.4379 104.25 28.9719 103.86 29.5852 103.655ZM39.7889 103.054V104.049H41.2495L42.0633 102.411L39.7889 103.054ZM54.3955 101.769C52.3881 100.705 50.0617 100.396 47.8434 100.898H47.426H47.0713L44.6925 101.541L43.524 103.883H58.5688L54.3955 101.769ZM66.9154 120.774C67.5344 120.774 68.1396 120.592 68.6543 120.25C69.169 119.909 69.5702 119.423 69.8071 118.855C70.044 118.287 70.106 117.662 69.9852 117.059C69.8644 116.456 69.5663 115.902 69.1286 115.467C68.6909 115.032 68.1332 114.736 67.526 114.616C66.9188 114.496 66.2895 114.558 65.7176 114.793C65.1457 115.029 64.6568 115.427 64.3129 115.938C63.969 116.45 63.7854 117.051 63.7854 117.666C63.7854 118.49 64.1152 119.281 64.7021 119.864C65.2891 120.447 66.0852 120.774 66.9154 120.774ZM37.7022 120.774C38.3213 120.774 38.9264 120.592 39.4412 120.25C39.9559 119.909 40.3571 119.423 40.594 118.855C40.8309 118.287 40.8928 117.662 40.7721 117.059C40.6513 116.456 40.3532 115.902 39.9155 115.467C39.4777 115.032 38.92 114.736 38.3129 114.616C37.7057 114.496 37.0764 114.558 36.5045 114.793C35.9325 115.029 35.4437 115.427 35.0998 115.938C34.7558 116.45 34.5723 117.051 34.5723 117.666C34.5723 118.49 34.902 119.281 35.489 119.864C36.076 120.447 36.8721 120.774 37.7022 120.774ZM29.3556 110.266H30.399C30.6757 110.266 30.941 110.376 31.1367 110.57C31.3324 110.764 31.4423 111.028 31.4423 111.303C31.4423 111.578 31.3324 111.841 31.1367 112.035C30.941 112.23 30.6757 112.339 30.399 112.339H29.3556V115.448C29.3556 115.723 29.4656 115.986 29.6612 116.181C29.8569 116.375 30.1222 116.484 30.399 116.484H32.6317C32.8979 115.35 33.5429 114.338 34.4616 113.613C35.3804 112.889 36.5188 112.495 37.6918 112.495C38.8648 112.495 40.0032 112.889 40.922 113.613C41.8407 114.338 42.4857 115.35 42.7519 116.484H61.8448C62.1111 115.35 62.756 114.338 63.6748 113.613C64.5935 112.889 65.732 112.495 66.9049 112.495C68.0779 112.495 69.2164 112.889 70.1351 113.613C71.0538 114.338 71.6988 115.35 71.9651 116.484H74.2187C74.4954 116.484 74.7607 116.375 74.9564 116.181C75.1521 115.986 75.262 115.723 75.262 115.448V112.339H74.2187C73.9419 112.339 73.6766 112.23 73.4809 112.035C73.2852 111.841 73.1753 111.578 73.1753 111.303C73.1753 111.028 73.2852 110.764 73.4809 110.57C73.6766 110.376 73.9419 110.266 74.2187 110.266H75.262V109.23C75.2542 109.079 75.2158 108.932 75.149 108.796C75.0823 108.66 74.9886 108.539 74.8735 108.441C74.7585 108.342 74.6246 108.267 74.4797 108.221C74.3349 108.175 74.1822 108.159 74.0309 108.173L62.7421 106.121H38.7456C38.4689 106.121 38.2035 106.012 38.0078 105.818C37.8122 105.623 37.7022 105.36 37.7022 105.085V103.613L30.1277 105.686C29.9263 105.738 29.7451 105.849 29.6075 106.004C29.47 106.159 29.3822 106.351 29.3556 106.556V110.266ZM45.0055 112.339H59.6121C59.8888 112.339 60.1542 112.448 60.3498 112.642C60.5455 112.837 60.6554 113.1 60.6554 113.375C60.6554 113.65 60.5455 113.914 60.3498 114.108C60.1542 114.302 59.8888 114.412 59.6121 114.412H45.0055C44.7288 114.412 44.4634 114.302 44.2678 114.108C44.0721 113.914 43.9622 113.65 43.9622 113.375C43.9622 113.1 44.0721 112.837 44.2678 112.642C44.4634 112.448 44.7288 112.339 45.0055 112.339Z" fill="#0466D3"/>
</svg>
